<svg xmlns="http://www.w3.org/2000/svg" viewBox="0 0 1219.9 1199.41"><defs><style>.cls-1{fill:#94c0d4;}.cls-2{fill:#f45b0f;}.cls-3{fill:#161616;}.cls-4{fill:#ffd726;}.cls-5{fill:#048ecb;}.cls-6{fill:#e6e6e6;}</style></defs><g id="Layer_2" data-name="Layer 2"><g id="Background"><g id="Patterns"><g id="Shape"><path class="cls-1" d="M217.46,322.4A108.73,108.73,0,1,0,0,322.4H217.46Z"/><path class="cls-2" d="M0,217.49a109.35,109.35,0,0,0,41.72-8.28,109.17,109.17,0,0,0,35.37-23.57,108.73,108.73,0,0,0,23.64-35.28,108.54,108.54,0,0,0,8.3-41.62,108.45,108.45,0,0,0-8.3-41.61A108.73,108.73,0,0,0,77.09,31.85,108.85,108.85,0,0,0,41.72,8.28,109.16,109.16,0,0,0,0,0V217.49Z"/><path class="cls-3" d="M239.27,588.21a109,109,0,0,1-109-109h109Z"/><path class="cls-2" d="M0,347.74A109,109,0,0,1,41.72,356a108.89,108.89,0,0,1,35.37,23.64,108.89,108.89,0,0,1,23.64,35.37,109,109,0,0,1,8.3,41.73H0Z"/><path class="cls-4" d="M130.24,109.63a109,109,0,0,1,109-109v109Z"/><path class="cls-4" d="M0,533.69a54.52,54.52,0,0,1,54.51-54.52H109v109H54.51A54.52,54.52,0,0,1,0,533.69Z"/><path class="cls-5" d="M130.24,402.85a54.52,54.52,0,0,0,54.51,54.52h54.52v-109H184.75a54.52,54.52,0,0,0-54.51,54.52Z"/><ellipse class="cls-4" cx="195.95" cy="174.17" rx="43.32" ry="43.32"/><path class="cls-4" d="M608.77,369.55a109,109,0,0,1-109,109v-109Z"/><path class="cls-1" d="M260.48,478a54.11,54.11,0,0,1,38.34,16,54.59,54.59,0,0,1-17.59,88.92A54,54,0,0,1,260.48,587Z"/><path class="cls-1" d="M478.53,587a108.74,108.74,0,1,1,0-217.48Z"/><path class="cls-2" d="M543.06,500.39a43.32,43.32,0,1,1-43.31,43.32A43.32,43.32,0,0,1,543.06,500.39Z"/><path class="cls-6" d="M303.8,370.14a43.32,43.32,0,1,1-43.32,43.32A43.31,43.31,0,0,1,303.8,370.14Z"/><path class="cls-1" d="M348.29,981.93a109,109,0,0,1-109,109v-109Z"/><path class="cls-4" d="M696.58,1112.77a54.06,54.06,0,0,1-38.34-16,54.6,54.6,0,0,1,17.59-88.92,54,54,0,0,1,20.75-4.15Z"/><path class="cls-3" d="M457.32,720.83a54.47,54.47,0,0,1-54.22-54.52A54.67,54.67,0,0,1,419,627.76a54.06,54.06,0,0,1,38.34-16Z"/><path class="cls-3" d="M0,1090.37a54,54,0,0,1,20.75,4.15,54.29,54.29,0,0,1,17.59,11.82A54.46,54.46,0,0,1,50.09,1124a54.65,54.65,0,0,1,4.13,20.86,54.74,54.74,0,0,1-4.13,20.87,54.52,54.52,0,0,1-11.75,17.68,54.29,54.29,0,0,1-17.59,11.82A54,54,0,0,1,0,1199.41Z"/><path class="cls-4" d="M218.05,1199.41a108.74,108.74,0,1,1,0-217.48Z"/><path class="cls-2" d="M109,720.24h109v109a109,109,0,0,1-109-109Z"/><path class="cls-2" d="M239.27,611.79a108.74,108.74,0,1,1,0,217.48Z"/><path class="cls-1" d="M479.12,1199.41a108.73,108.73,0,1,1,217.46,0Z"/><path class="cls-4" d="M935.26,877.6a108.73,108.73,0,1,1-217.46,0Z"/><path class="cls-5" d="M717.8,981.93a108.74,108.74,0,1,1,0,217.48Z"/><path class="cls-2" d="M609.36,851.08a108.73,108.73,0,1,1,217.46,0Z"/><path class="cls-2" d="M696.58,611.79a108.73,108.73,0,1,1-217.46,0Z"/><path class="cls-1" d="M457.32,960.12a108.75,108.75,0,1,1,0-217.49Z"/><path class="cls-2" d="M0,960.12V742.63a109.16,109.16,0,0,1,41.72,8.28,109.17,109.17,0,0,1,35.37,23.57,108.73,108.73,0,0,1,23.64,35.28,108.5,108.5,0,0,1,8.3,41.62,108.45,108.45,0,0,1-8.3,41.61,108.73,108.73,0,0,1-23.64,35.28,109,109,0,0,1-35.37,23.57A109.16,109.16,0,0,1,0,960.12Z"/><path class="cls-5" d="M130.24,960.12a108.73,108.73,0,1,1,217.46,0Z"/><path class="cls-2" d="M587.56,981.93a108.73,108.73,0,1,1-217.46,0Z"/><path class="cls-1" d="M587.56,851.08h-109V742a109,109,0,0,1,109,109Z"/><path class="cls-4" d="M587.56,872.89h109v109a109,109,0,0,1-109-109Z"/><path class="cls-2" d="M848,1090.37h109v109a109,109,0,0,1-109-109Z"/><path class="cls-5" d="M402.8,1090.37a54.52,54.52,0,0,1,54.52,54.52v54.52h-109v-54.52A54.52,54.52,0,0,1,402.8,1090.37Z"/><path class="cls-5" d="M109,666.31a54.52,54.52,0,0,1-54.52,54.52H0v-109H54.51A54.52,54.52,0,0,1,109,666.31Z"/><path class="cls-4" d="M717.8,666.31a54.51,54.51,0,0,1,54.51-54.52h54.51v109H772.31A54.51,54.51,0,0,1,717.8,666.31Z"/><path class="cls-6" d="M282.58,1112.77a43.32,43.32,0,1,1-43.31,43.32A43.33,43.33,0,0,1,282.58,1112.77Z"/><path class="cls-5" d="M43.32,982.51A43.33,43.33,0,1,1,0,1025.83,43.32,43.32,0,0,1,43.32,982.51Z"/><path class="cls-3" d="M173.56,611.79a43.32,43.32,0,1,1-43.32,43.32A43.31,43.31,0,0,1,173.56,611.79Z"/><path class="cls-3" d="M522.44,873.48a43.32,43.32,0,1,1-43.32,43.32A43.31,43.31,0,0,1,522.44,873.48Z"/><path class="cls-3" d="M913.75,982.51a43.33,43.33,0,1,1-43.32,43.32A43.32,43.32,0,0,1,913.75,982.51Z"/><path class="cls-2" d="M980.64,1199.41v-109h109a109,109,0,0,1-109,109Z"/><path class="cls-6" d="M1219.9,1144.89a54.51,54.51,0,0,1-54.51,54.52h-54.51v-109h54.51A54.51,54.51,0,0,1,1219.9,1144.89Z"/></g></g></g></g></svg>